<?xml version="1.0" encoding="UTF-8" standalone="no"?>
<!-- Generator: Adobe Illustrator 16.0.4, SVG Export Plug-In . SVG Version: 6.00 Build 0)  -->

<svg
   xmlns:dc="http://purl.org/dc/elements/1.1/"
   xmlns:cc="http://creativecommons.org/ns#"
   xmlns:rdf="http://www.w3.org/1999/02/22-rdf-syntax-ns#"
   xmlns:svg="http://www.w3.org/2000/svg"
   xmlns="http://www.w3.org/2000/svg"
   xmlns:sodipodi="http://sodipodi.sourceforge.net/DTD/sodipodi-0.dtd"
   xmlns:inkscape="http://www.inkscape.org/namespaces/inkscape"
   version="1.1"
   id="Ebene_1"
   x="0px"
   y="0px"
   width="172"
   height="200"
   viewBox="0 0 172 200"
   enable-background="new 0 0 198.425 198.425"
   xml:space="preserve"
   inkscape:version="0.91 r"
   sodipodi:docname="CodeForChemnitz_neu.svg"><metadata
     id="metadata4514"><rdf:RDF><cc:Work
         rdf:about=""><dc:format>image/svg+xml</dc:format><dc:type
           rdf:resource="http://purl.org/dc/dcmitype/StillImage" /><dc:title></dc:title></cc:Work></rdf:RDF></metadata><defs
     id="defs4512" /><sodipodi:namedview
     pagecolor="#ffffff"
     bordercolor="#666666"
     borderopacity="1"
     objecttolerance="10"
     gridtolerance="10"
     guidetolerance="10"
     inkscape:pageopacity="0"
     inkscape:pageshadow="2"
     inkscape:window-width="1366"
     inkscape:window-height="716"
     id="namedview4510"
     showgrid="false"
     inkscape:snap-bbox="true"
     inkscape:bbox-paths="true"
     inkscape:bbox-nodes="true"
     inkscape:snap-bbox-edge-midpoints="true"
     inkscape:snap-bbox-midpoints="true"
     inkscape:zoom="2.7819075"
     inkscape:cx="99.212502"
     inkscape:cy="99.212502"
     inkscape:window-x="0"
     inkscape:window-y="25"
     inkscape:window-maximized="1"
     inkscape:current-layer="Ebene_1"><sodipodi:guide
       position="0,0"
       orientation="0,198.425"
       id="guide4600" /><sodipodi:guide
       position="198.425,0"
       orientation="-198.425,0"
       id="guide4602" /><sodipodi:guide
       position="198.425,198.425"
       orientation="0,-198.425"
       id="guide4604" /><sodipodi:guide
       position="0,198.425"
       orientation="198.425,0"
       id="guide4606" /></sodipodi:namedview><g
     id="g4516"
     transform="matrix(1.376011,0,0,1.3888889,-50.517492,-37.794446)"><polygon
       id="polygon4346"
       points="161.712,63.212 161.712,135.212 99.213,171.212 36.713,135.212 36.713,63.212 99.213,27.212 "
       style="fill:#ff867f" /><polygon
       id="polygon4348"
       points="40.713,65.378 99.213,31.546 157.712,65.378 157.712,133.046 99.213,166.88 40.713,133.046 "
       stroke-miterlimit="10"
       style="fill:none;stroke:#ffffff;stroke-width:1.44672263;stroke-miterlimit:10" /><g
       id="g4350"><path
         id="path4352"
         d="m 108.859,61.362 c -1.357,-1.623 -3.443,-2.938 -9.062,-2.938 l -0.254,0 c -5.617,0 -7.617,1.116 -8.977,2.74"
         stroke-miterlimit="10"
         inkscape:connector-curvature="0"
         style="fill:none;stroke:#ffffff;stroke-width:1.44672263;stroke-miterlimit:10" /><path
         id="path4354"
         d="m 96.637,65.935 c 0,0 -3.11,-4.572 -5.28,-4.572 -4.545,0 -6.862,3.353 -6.862,3.353"
         stroke-miterlimit="10"
         inkscape:connector-curvature="0"
         style="fill:none;stroke:#ffffff;stroke-width:1.44672263;stroke-miterlimit:10" /><path
         id="path4356"
         d="m 91.76,66.016 c 0,0 -6.227,-2.297 -8.632,-0.9 -1.862,1.081 -3.627,3.091 -3.627,3.091"
         stroke-miterlimit="10"
         inkscape:connector-curvature="0"
         style="fill:none;stroke:#ffffff;stroke-width:1.44672263;stroke-miterlimit:10" /><path
         id="path4358"
         d="m 84.025,68.067 c 0,0 -14.755,-3.565 -34.024,25.231 0,0 4.438,9.635 12.125,14.833 0,0 -6.003,8.418 1.436,24.096"
         stroke-miterlimit="10"
         inkscape:connector-curvature="0"
         style="fill:none;stroke:#ffffff;stroke-width:1.44672263;stroke-miterlimit:10" /><path
         id="path4360"
         d="m 89.486,92.26 c 0,0.905 -0.719,1.672 -1.625,1.672 -0.906,0 -1.654,-0.767 -1.654,-1.672"
         stroke-miterlimit="10"
         inkscape:connector-curvature="0"
         style="fill:none;stroke:#ffffff;stroke-width:1.44672263;stroke-miterlimit:10" /><path
         id="path4362"
         d="m 80.838,95.788 c 0,0 2.496,4.053 4.888,4.061 1.779,0.002 7.116,-4.784 9.036,-4.784"
         stroke-miterlimit="10"
         inkscape:connector-curvature="0"
         style="fill:none;stroke:#ffffff;stroke-width:1.44672263;stroke-miterlimit:10" /><path
         id="path4364"
         d="m 102.078,105.833 c 1.578,0.342 2.133,-0.752 2.17,-2.018 0.027,-0.994 -1.756,-2.054 -3.045,-1.288 -0.897,0.533 -0.582,2.328 -2.488,2.328 -1.586,0 -1.586,-1.354 -1.586,-2.437 0,-1.199 -2.363,-2.87 -1.39,-6.009 L 95.036,93.82 c -2.122,-0.837 -2.853,-2.264 -6.687,-2.483 -2.658,-0.151 -5.258,1.996 -5.546,2.285"
         stroke-miterlimit="10"
         inkscape:connector-curvature="0"
         style="fill:none;stroke:#ffffff;stroke-width:1.44672263;stroke-miterlimit:10" /><path
         id="path4366"
         d="m 95.514,105.897 c -1.926,0.317 -2.156,-1.121 -2.195,-1.878 -0.035,-0.686 0.668,-1.491 1.776,-1.467 0.805,0.018 1.371,0.396 2.055,0.656"
         stroke-miterlimit="10"
         inkscape:connector-curvature="0"
         style="fill:none;stroke:#ffffff;stroke-width:1.44672263;stroke-miterlimit:10" /><path
         id="path4368"
         d="m 93.318,112.966 c -1.659,0.648 -5.932,6.351 -7.23,7.578 -1.301,1.227 -3.25,1.66 -3.754,0.648 -0.505,-1.011 0.433,-3.607 0,-4.33"
         stroke-miterlimit="10"
         inkscape:connector-curvature="0"
         style="fill:none;stroke:#ffffff;stroke-width:1.44672263;stroke-miterlimit:10" /><line
         id="line4370"
         y2="86.370003"
         x2="66.617996"
         y1="80.091003"
         x1="75.547997"
         stroke-miterlimit="10"
         style="fill:none;stroke:#ffffff;stroke-width:1.44672263;stroke-miterlimit:10" /><line
         id="line4372"
         y2="79.765999"
         x2="68.514"
         y1="75.532997"
         x1="76.502998"
         stroke-miterlimit="10"
         style="fill:none;stroke:#ffffff;stroke-width:1.44672263;stroke-miterlimit:10" /><line
         id="line4374"
         y2="108.13"
         x2="62.125"
         y1="93.333"
         x1="75.933998"
         stroke-miterlimit="10"
         style="fill:none;stroke:#ffffff;stroke-width:1.44672263;stroke-miterlimit:10" /><line
         id="line4376"
         y2="93.299004"
         x2="57.794998"
         y1="97.237999"
         x1="51.661999"
         stroke-miterlimit="10"
         style="fill:none;stroke:#ffffff;stroke-width:1.44672263;stroke-miterlimit:10" /><line
         id="line4378"
         y2="91.671997"
         x2="54.729"
         y1="94.402"
         x1="50.556"
         stroke-miterlimit="10"
         style="fill:none;stroke:#ffffff;stroke-width:1.44672263;stroke-miterlimit:10" /><polyline
         id="polyline4380"
         points="58.662,96.371 70.381,88.642    76.503,88.318  "
         stroke-miterlimit="10"
         style="fill:none;stroke:#ffffff;stroke-width:1.44672263;stroke-miterlimit:10" /><line
         id="line4382"
         y2="111.612"
         x2="74.795998"
         y1="116.574"
         x1="73.526001"
         stroke-miterlimit="10"
         style="fill:none;stroke:#ffffff;stroke-width:1.44672263;stroke-miterlimit:10" /><line
         id="line4384"
         y2="111.441"
         x2="72.193001"
         y1="117.873"
         x1="68.897003"
         stroke-miterlimit="10"
         style="fill:none;stroke:#ffffff;stroke-width:1.44672263;stroke-miterlimit:10" /><line
         id="line4386"
         y2="110.944"
         x2="69.514"
         y1="118.957"
         x1="63.654999"
         stroke-miterlimit="10"
         style="fill:none;stroke:#ffffff;stroke-width:1.44672263;stroke-miterlimit:10" /><path
         id="path4388"
         d="m 101.789,65.935 c 0,0 3.109,-4.572 5.279,-4.572 4.545,0 6.86,3.353 6.86,3.353"
         stroke-miterlimit="10"
         inkscape:connector-curvature="0"
         style="fill:none;stroke:#ffffff;stroke-width:1.44672263;stroke-miterlimit:10" /><path
         id="path4390"
         d="m 106.666,66.016 c 0,0 6.227,-2.297 8.631,-0.9 1.863,1.081 3.627,3.091 3.627,3.091"
         stroke-miterlimit="10"
         inkscape:connector-curvature="0"
         style="fill:none;stroke:#ffffff;stroke-width:1.44672263;stroke-miterlimit:10" /><path
         id="path4392"
         d="m 114.399,68.067 c 0,0 14.755,-3.565 34.024,25.231 0,0 -4.438,9.635 -12.125,14.833 0,0 5.806,8.141 -1.078,23.322"
         stroke-miterlimit="10"
         inkscape:connector-curvature="0"
         style="fill:none;stroke:#ffffff;stroke-width:1.44672263;stroke-miterlimit:10" /><path
         id="path4394"
         d="m 115.805,121.193 2.704,0.908 c 2.017,-5.645 -1.211,-9.477 -1.211,-9.477 0,0 1.916,-2.621 2.22,-4.437 0.303,-1.813 1.108,-3.528 2.418,-6.149 1.312,-2.621 -0.302,-13.812 -0.302,-13.812 2.822,-11.492 -1.512,-15.143 -1.512,-15.143 -7.057,-9.276 -21.069,-6.907 -21.069,-6.907 l -0.256,0 c 0,0 -14.013,-2.369 -21.07,6.907 0,0 -4.334,3.742 -1.512,15.233 0,0 -1.611,11.146 -0.301,13.767 1.309,2.621 2.116,4.313 2.418,6.129 0.303,1.812 2.219,4.422 2.219,4.422 0,0 -3.226,3.828 -1.211,9.473 l 2.707,-0.911"
         stroke-miterlimit="10"
         inkscape:connector-curvature="0"
         style="fill:none;stroke:#ffffff;stroke-width:1.44672263;stroke-miterlimit:10" /><path
         id="path4396"
         d="m 117.587,112.625 c -1.897,-3.012 -9.074,-4.35 -10.156,-4.855 -1.082,-0.505 -3.107,-2.284 -7.726,-1.952 l -1.566,-0.038 c -4.618,-0.332 -6.063,1.485 -7.145,1.99 -1.082,0.507 -8.259,1.846 -10.156,4.855"
         stroke-miterlimit="10"
         inkscape:connector-curvature="0"
         style="fill:none;stroke:#ffffff;stroke-width:1.44672263;stroke-miterlimit:10" /><path
         id="path4398"
         d="m 118.112,92.433 c -1.786,-2.706 -3.627,-4.006 -6.135,-4.366 -1.962,-0.282 -3.465,0.718 -6.136,1.439 -2.67,0.722 -4.163,0.919 -6.546,0.919 l -0.167,0 c -2.382,0 -3.876,-0.197 -6.546,-0.919 -2.67,-0.721 -4.173,-1.655 -6.135,-1.373 -2.508,0.361 -4.349,1.627 -6.135,4.333"
         stroke-miterlimit="10"
         inkscape:connector-curvature="0"
         style="fill:none;stroke:#ffffff;stroke-width:1.44672263;stroke-miterlimit:10" /><path
         id="path4400"
         d="m 108.348,92.292 c 0,0.905 0.733,1.64 1.641,1.64 0.908,0 1.64,-0.735 1.64,-1.64"
         stroke-miterlimit="10"
         inkscape:connector-curvature="0"
         style="fill:none;stroke:#ffffff;stroke-width:1.44672263;stroke-miterlimit:10" /><path
         id="path4402"
         d="m 118.923,87.996 c 0,0 -1.047,-5.974 -9.422,-5.435 -4.347,0.284 -7.588,0.864 -9.792,0.864 l -0.995,0 c -2.202,0 -5.445,-0.58 -9.792,-0.864 -8.374,-0.539 -9.422,5.468 -9.422,5.468"
         stroke-miterlimit="10"
         inkscape:connector-curvature="0"
         style="fill:none;stroke:#ffffff;stroke-width:1.44672263;stroke-miterlimit:10" /><path
         id="path4404"
         d="m 117.587,95.788 c 0,0 -2.418,4.053 -4.812,4.061 -1.778,0.002 -7.772,-4.612 -9.772,-4.612 l 0.539,-1.415 c 2,-0.837 2.773,-2.264 6.61,-2.483 2.656,-0.151 5.218,1.996 5.507,2.285"
         stroke-miterlimit="10"
         inkscape:connector-curvature="0"
         style="fill:none;stroke:#ffffff;stroke-width:1.44672263;stroke-miterlimit:10" /><path
         id="path4406"
         d="m 105.107,112.966 c 1.658,0.648 5.932,6.351 7.23,7.578 1.3,1.227 3.248,1.66 3.754,0.648 0.505,-1.011 -0.434,-3.607 0,-4.33"
         stroke-miterlimit="10"
         inkscape:connector-curvature="0"
         style="fill:none;stroke:#ffffff;stroke-width:1.44672263;stroke-miterlimit:10" /><path
         id="path4408"
         d="m 107.434,114.951 c -1.998,2.922 -2.46,3.475 -7.442,3.475 l -1.557,0 c -4.983,0 -5.596,-0.553 -7.402,-2.967"
         stroke-miterlimit="10"
         inkscape:connector-curvature="0"
         style="fill:none;stroke:#ffffff;stroke-width:1.44672263;stroke-miterlimit:10" /><line
         id="line4410"
         y2="86.370003"
         x2="131.80701"
         y1="80.091003"
         x1="122.876"
         stroke-miterlimit="10"
         style="fill:none;stroke:#ffffff;stroke-width:1.44672263;stroke-miterlimit:10" /><line
         id="line4412"
         y2="79.766998"
         x2="129.912"
         y1="76.050003"
         x1="122.126"
         stroke-miterlimit="10"
         style="fill:none;stroke:#ffffff;stroke-width:1.44672263;stroke-miterlimit:10" /><line
         id="line4414"
         y2="108.13"
         x2="136.298"
         y1="93.038002"
         x1="122.472"
         stroke-miterlimit="10"
         style="fill:none;stroke:#ffffff;stroke-width:1.44672263;stroke-miterlimit:10" /><polyline
         id="polyline4416"
         points="118,156.425 118,132.845 109.705,127.425    88.721,127.425 80,132.935 80,155.425  "
         stroke-miterlimit="10"
         style="fill:none;stroke:#ffffff;stroke-width:1.44672263;stroke-miterlimit:10" /><line
         id="line4418"
         y2="93.299004"
         x2="140.63"
         y1="97.237999"
         x1="146.763"
         stroke-miterlimit="10"
         style="fill:none;stroke:#ffffff;stroke-width:1.44672263;stroke-miterlimit:10" /><line
         id="line4420"
         y2="91.671997"
         x2="143.696"
         y1="94.402"
         x1="147.869"
         stroke-miterlimit="10"
         style="fill:none;stroke:#ffffff;stroke-width:1.44672263;stroke-miterlimit:10" /><polyline
         id="polyline4422"
         points="139.764,96.371 128.044,88.642    121.921,88.228  "
         stroke-miterlimit="10"
         style="fill:none;stroke:#ffffff;stroke-width:1.44672263;stroke-miterlimit:10" /><polyline
         id="polyline4424"
         points="109.705,127.425 102.957,122.425    99.8,122.425 98.933,122.425 95.469,122.425 88.721,127.425  "
         stroke-miterlimit="10"
         style="fill:none;stroke:#ffffff;stroke-width:1.44672263;stroke-miterlimit:10" /><line
         id="line4426"
         y2="111.612"
         x2="123.628"
         y1="116.574"
         x1="124.898"
         stroke-miterlimit="10"
         style="fill:none;stroke:#ffffff;stroke-width:1.44672263;stroke-miterlimit:10" /><line
         id="line4428"
         y2="111.441"
         x2="126.231"
         y1="117.873"
         x1="129.52699"
         stroke-miterlimit="10"
         style="fill:none;stroke:#ffffff;stroke-width:1.44672263;stroke-miterlimit:10" /><line
         id="line4430"
         y2="110.944"
         x2="128.91"
         y1="118.957"
         x1="134.771"
         stroke-miterlimit="10"
         style="fill:none;stroke:#ffffff;stroke-width:1.44672263;stroke-miterlimit:10" /><path
         id="path4432"
         d="m 106.058,109.679 c 0,0 0.374,3.541 -2.508,3.541 -2.412,0 -4.438,-2.492 -4.438,-2.492 0,0 -2.304,2.492 -4.337,2.492 -2.883,0 -2.508,-3.499 -2.508,-3.499"
         stroke-miterlimit="10"
         inkscape:connector-curvature="0"
         style="fill:none;stroke:#ffffff;stroke-width:1.44672263;stroke-miterlimit:10" /><polyline
         id="polyline4434"
         points="63.134,131.296 69.054,128.867    80.313,132.813  "
         stroke-miterlimit="10"
         style="fill:none;stroke:#ffffff;stroke-width:1.44672263;stroke-miterlimit:10" /><polyline
         id="polyline4436"
         points="136.298,131.296 128.955,128.867    117.695,132.813  "
         stroke-miterlimit="10"
         style="fill:none;stroke:#ffffff;stroke-width:1.44672263;stroke-miterlimit:10" /><rect
         id="rect4438"
         height="12"
         width="49"
         y="135.925"
         x="74.5"
         style="fill:#ff867f" /><rect
         id="rect4440"
         height="12"
         width="49"
         stroke-miterlimit="10"
         y="135.925"
         x="74.5"
         style="fill:none;stroke:#ffffff;stroke-width:0.72336131;stroke-miterlimit:10" /><path
         id="path4442"
         d="m 82.84,140.757 c -0.352,-0.891 -0.84,-1.34 -1.789,-1.34 -1.18,0 -2.119,0.83 -2.119,2.539 0,1.709 0.939,2.537 2.119,2.537 0.949,0 1.437,-0.449 1.789,-1.339 l 1.039,0.261 c -0.359,1.318 -1.34,2.119 -2.828,2.119 -1.69,0 -3.238,-1.211 -3.238,-3.578 0,-2.369 1.548,-3.578 3.238,-3.578 1.488,0 2.469,0.799 2.828,2.119 l -1.039,0.26 z"
         inkscape:connector-curvature="0"
         style="fill:#ffffff" /><path
         id="path4444"
         d="m 86.01,138.378 0,2.897 c 0.361,-0.521 0.939,-0.938 1.699,-0.938 0.93,0 1.49,0.498 1.49,1.568 l 0,3.549 -1.039,0 0,-3.279 c 0,-0.77 -0.32,-0.92 -0.791,-0.92 -0.568,0 -1.359,0.73 -1.359,2.07 l 0,2.129 -1.039,0 0,-7.076 1.039,0 z"
         inkscape:connector-curvature="0"
         style="fill:#ffffff" /><path
         id="path4446"
         d="m 94.949,143.225 -3.569,0 c 0,0.739 0.43,1.392 1.25,1.392 0.54,0 1.059,-0.302 1.319,-0.851 l 0.89,0.351 c -0.49,0.948 -1.06,1.418 -2.209,1.418 -1.66,0 -2.349,-1.398 -2.349,-2.599 0,-1.201 0.689,-2.599 2.349,-2.599 1.61,0 2.319,1.31 2.319,2.438 l 0,0.45 z m -3.549,-0.87 2.449,0 c -0.09,-0.561 -0.47,-1.1 -1.219,-1.1 -0.689,0 -1.119,0.472 -1.23,1.1"
         inkscape:connector-curvature="0"
         style="fill:#ffffff" /><path
         id="path4448"
         d="m 97.221,140.417 0,0.858 c 0.41,-0.63 0.91,-0.938 1.52,-0.938 0.679,0 1.238,0.408 1.387,1.039 0.351,-0.66 0.92,-1.039 1.568,-1.039 0.92,0 1.439,0.629 1.439,1.509 l 0,3.608 -1.039,0 0,-3.379 c 0,-0.55 -0.299,-0.82 -0.74,-0.82 -0.619,0 -1.178,0.791 -1.178,2.181 l 0,2.019 -1.041,0 0,-3.377 c 0,-0.551 -0.299,-0.82 -0.738,-0.82 -0.631,0 -1.18,0.789 -1.18,2.289 l 0,1.908 -1.039,0 0,-5.037 1.041,0 0,-0.001 z"
         inkscape:connector-curvature="0"
         style="fill:#ffffff" /><path
         id="path4450"
         d="m 105.589,140.417 0,0.858 c 0.361,-0.601 0.961,-0.938 1.63,-0.938 0.881,0 1.479,0.529 1.479,1.509 l 0,3.608 -1.039,0 0,-3.279 c 0,-0.68 -0.311,-0.92 -0.779,-0.92 -0.649,0 -1.291,0.771 -1.291,2.16 l 0,2.039 -1.039,0 0,-5.037 1.039,0 z"
         inkscape:connector-curvature="0"
         style="fill:#ffffff" /><path
         id="path4452"
         d="m 110.5,138.268 c 0.41,0 0.722,0.33 0.722,0.729 0,0.399 -0.312,0.709 -0.722,0.709 -0.408,0 -0.719,-0.31 -0.719,-0.709 0,-0.399 0.31,-0.729 0.719,-0.729 m 0.521,7.187 -1.041,0 0,-5.037 1.041,0 0,5.037 z"
         inkscape:connector-curvature="0"
         style="fill:#ffffff" /><path
         id="path4454"
         d="m 112.072,140.417 0.838,0 0,-1.391 1.041,-0.648 0,2.039 1.311,0 0,0.918 -1.311,0 0,2.459 c 0,0.57 0.209,0.82 0.668,0.82 0.184,0 0.301,-0.031 0.48,-0.141 l 0.27,0.88 c -0.27,0.13 -0.529,0.181 -0.809,0.181 -0.949,0 -1.65,-0.561 -1.65,-1.801 l 0,-2.398 -0.838,0 0,-0.918 z"
         inkscape:connector-curvature="0"
         style="fill:#ffffff" /><polygon
         id="polygon4456"
         points="119.759,140.417 119.759,140.835 117.49,144.535 119.869,144.535 119.869,145.455 116.143,145.455 116.143,145.035 118.41,141.335 116.291,141.335 116.291,140.417 "
         style="fill:#ffffff" /><line
         id="line4458"
         y2="146.425"
         x2="63"
         y1="131.425"
         x1="63"
         stroke-miterlimit="10"
         style="fill:none;stroke:#ffffff;stroke-width:1.44672263;stroke-miterlimit:10" /><line
         id="line4460"
         y2="146.425"
         x2="135"
         y1="131.425"
         x1="135"
         stroke-miterlimit="10"
         style="fill:none;stroke:#ffffff;stroke-width:1.44672263;stroke-miterlimit:10" /><line
         id="line4462"
         y2="74.569"
         x2="131.839"
         y1="65.428001"
         x1="156.91701"
         stroke-miterlimit="10"
         style="fill:none;stroke:#ffffff;stroke-width:1.44672263;stroke-miterlimit:10" /><line
         id="line4464"
         y2="55.333"
         x2="140.62801"
         y1="70.890999"
         x1="126.231"
         stroke-miterlimit="10"
         style="fill:none;stroke:#ffffff;stroke-width:1.44672263;stroke-miterlimit:10" /><line
         id="line4466"
         y2="47.68"
         x2="126.231"
         y1="67.927002"
         x1="121.518"
         stroke-miterlimit="10"
         style="fill:none;stroke:#ffffff;stroke-width:1.44672263;stroke-miterlimit:10" /><line
         id="line4468"
         y2="80.425003"
         x2="157"
         y1="80.425003"
         x1="138"
         stroke-miterlimit="10"
         style="fill:none;stroke:#ffffff;stroke-width:1.44672263;stroke-miterlimit:10" /><line
         id="line4470"
         y2="74.568001"
         x2="67.308998"
         y1="65.165001"
         x1="41.519001"
         stroke-miterlimit="10"
         style="fill:none;stroke:#ffffff;stroke-width:1.44672263;stroke-miterlimit:10" /><line
         id="line4472"
         y2="55.333"
         x2="58.519001"
         y1="70.890999"
         x1="72.917"
         stroke-miterlimit="10"
         style="fill:none;stroke:#ffffff;stroke-width:1.44672263;stroke-miterlimit:10" /><line
         id="line4474"
         y2="47.68"
         x2="72.917"
         y1="67.927002"
         x1="77.630997"
         stroke-miterlimit="10"
         style="fill:none;stroke:#ffffff;stroke-width:1.44672263;stroke-miterlimit:10" /><line
         id="line4476"
         y2="82.425003"
         x2="58"
         y1="82.425003"
         x1="41"
         stroke-miterlimit="10"
         style="fill:none;stroke:#ffffff;stroke-width:1.44672263;stroke-miterlimit:10" /><path
         id="path4478"
         d="m 97.041,50.332 c -0.187,-0.121 -0.324,-0.162 -0.486,-0.162 -0.287,0 -0.444,0.18 -0.444,0.569 l 0,0.198 1.174,0 0,0.456 -1.174,0 0,2.566 -0.504,0 0,-2.566 -0.851,0 0,-0.456 0.851,0 0,-0.185 c 0,-0.732 0.354,-1.038 0.93,-1.038 0.275,0 0.461,0.071 0.629,0.174 l -0.125,0.444 z"
         inkscape:connector-curvature="0"
         style="fill:#ffffff" /><path
         id="path4480"
         d="m 99.465,50.889 c 0.924,0 1.486,0.726 1.486,1.559 0,0.833 -0.562,1.56 -1.486,1.56 -0.924,0 -1.488,-0.727 -1.488,-1.56 0,-0.833 0.564,-1.559 1.488,-1.559 m 0,2.663 c 0.617,0 0.971,-0.521 0.971,-1.104 0,-0.581 -0.354,-1.104 -0.971,-1.104 -0.617,0 -0.971,0.522 -0.971,1.104 0,0.582 0.354,1.104 0.971,1.104"
         inkscape:connector-curvature="0"
         style="fill:#ffffff" /><path
         id="path4482"
         d="m 103.873,51.896 c -0.041,-0.348 -0.221,-0.552 -0.582,-0.552 -0.526,0 -1.024,0.498 -1.024,1.524 l 0,1.091 -0.502,0 0,-3.022 0.502,0 0,0.557 c 0.233,-0.366 0.612,-0.606 1.116,-0.606 0.601,0 0.959,0.361 0.994,1.008 l -0.504,0 z"
         inkscape:connector-curvature="0"
         style="fill:#ffffff" /><polygon
         id="polygon4484"
         points="96.202,47.241 96.329,47.241 96.329,40.766 95.52,40.766 95.52,40.867 95.52,47.241 96.053,47.241 "
         style="fill:#ffffff" /><path
         id="path4486"
         d="m 98.729,47.848 c 0.057,0 0.129,-0.051 0.129,-0.105 l 0,-7.584 c 0,-0.055 -0.072,-0.101 -0.129,-0.101 l -2.527,0 c -0.055,0 -0.075,0.022 -0.075,0.051 l 0,0.151 0,0.506 c 0,0.055 0.02,0.102 0.075,0.102 l 1.718,0 c 0.057,0 0.129,0.044 0.129,0.099 l 0,5.967 c 0,0.055 -0.072,0.104 -0.129,0.104 l -1.718,0 c -0.055,0 -0.075,0.019 -0.075,0.047 l 0,0.152 0,0.506 c 0,0.054 0.02,0.105 0.075,0.105 l 2.527,0 z"
         inkscape:connector-curvature="0"
         style="fill:#ffffff" /><polygon
         id="polygon4488"
         points="100.68,40.766 99.869,40.766 99.869,40.867 99.869,47.241 100.548,47.241 100.68,47.241 "
         style="fill:#ffffff" /><path
         id="path4490"
         d="m 100.578,47.844 0,-0.81 c 1.113,0 1.889,-1.383 1.889,-3.084 0,-1.7 -0.774,-3.084 -1.889,-3.084 l 0,-0.808 c 1.519,0 2.697,1.746 2.697,3.892 0,2.147 -1.179,3.894 -2.697,3.894"
         inkscape:connector-curvature="0"
         style="fill:#ffffff" /><path
         id="path4492"
         d="m 92.182,45.355 0,1.115 0,0.36 c 0,0.605 0.387,1.017 0.998,1.017 l 0.172,0 0.496,0 0.584,0 c 0.029,0 0.076,-0.051 0.076,-0.105 l 0,-0.608 c 0,-0.054 -0.07,-0.096 -0.127,-0.096 l -0.58,0 -0.297,0 -0.183,0 c -0.262,0 -0.33,-0.112 -0.33,-0.411 l 0,-0.177 0,-0.974 0,-0.594 c 0,-0.609 -0.248,-0.834 -0.551,-0.945 0.303,-0.109 0.551,-0.334 0.551,-0.943 l 0,-0.422 0,-1.07 0,-0.252 c 0,-0.294 0.058,-0.382 0.33,-0.382 l 0.228,0 0.289,0 0.594,0 c 0.029,0 0.076,-0.047 0.076,-0.102 l 0,-0.607 c 0,-0.055 -0.07,-0.101 -0.127,-0.101 l -0.486,0 -0.457,0 -0.258,0 c -0.611,0 -0.998,0.397 -0.998,0.989 l 0,0.317 0,1.323 c 0,0 -0.021,0.304 -0.035,0.407 -0.039,0.274 -0.373,0.508 -0.582,0.505 l -0.317,0 c -0.056,0 -0.078,0.043 -0.078,0.099 l 0,0.607 c 0,0.055 0.022,0.104 0.078,0.104 l 0.289,0 c 0.266,-0.004 0.6,0.218 0.625,0.552 0.007,0.096 0.02,0.394 0.02,0.394"
         inkscape:connector-curvature="0"
         style="fill:#ffffff" /><path
         id="path4494"
         d="m 96.201,40.058 -0.287,0 -0.318,0 c -0.057,0 -0.077,0.046 -0.077,0.101 l 0,0.187 0,0.42 0,0.102 0.077,0 0.605,0 0.127,0 0,-0.102 0,-0.607 0,-0.101 -0.127,0 z"
         inkscape:connector-curvature="0"
         style="fill:#ffffff" /><path
         id="path4496"
         d="m 95.52,47.135 0,0.287 0,0.32 c 0,0.055 0.02,0.106 0.076,0.106 l 0.186,0 0.42,0 0.127,0 0,-0.106 0,-0.607 0,-0.097 -0.127,0 -0.606,0 -0.076,0 0,0.097 z"
         inkscape:connector-curvature="0"
         style="fill:#ffffff" /><path
         id="path4498"
         d="m 100.548,40.058 -0.284,0 -0.32,0 c -0.057,0 -0.073,0.046 -0.073,0.101 l 0,0.187 0,0.42 0,0.102 0.073,0 0.604,0 0.132,0 0,-0.102 0,-0.607 0,-0.101 -0.132,0 z"
         inkscape:connector-curvature="0"
         style="fill:#ffffff" /><path
         id="path4500"
         d="m 99.869,47.135 0,0.287 0,0.32 c 0,0.055 0.019,0.106 0.074,0.106 l 0.186,0 0.42,0 0.132,0 0,-0.106 0,-0.607 0,-0.097 -0.132,0 -0.604,0 -0.073,0 0,0.097 -0.003,0 z"
         inkscape:connector-curvature="0"
         style="fill:#ffffff" /><path
         id="path4502"
         d="m 104.928,45.355 0,1.115 0,0.36 c 0,0.605 0.381,1.017 0.991,1.017 l 0.172,0 0.496,0 0.584,0 c 0.026,0 0.082,-0.051 0.082,-0.105 l 0,-0.608 c 0,-0.054 -0.075,-0.096 -0.133,-0.096 l -0.58,0 -0.297,0 -0.184,0 c -0.262,0 -0.324,-0.112 -0.324,-0.411 l 0,-0.177 0,-0.974 0,-0.594 c 0,-0.195 -0.057,-0.373 -0.102,-0.474 l -1.357,0 c 0.373,0.101 0.531,0.234 0.609,0.558 0.038,0.162 0.043,0.389 0.043,0.389"
         inkscape:connector-curvature="0"
         style="fill:#ffffff" /><path
         id="path4504"
         d="m 104.871,43.094 c -0.078,0.265 -0.254,0.403 -0.565,0.505 l 1.274,0 c 0.078,-0.202 0.156,-0.337 0.156,-0.606 l 0,-0.42 0,-1.07 0,-0.254 c 0,-0.294 0.053,-0.382 0.324,-0.382 l 0.229,0 0.289,0 0.594,0 c 0.027,0 0.082,-0.046 0.082,-0.101 l 0,-0.608 c 0,-0.054 -0.075,-0.1 -0.133,-0.1 l -0.486,0 -0.456,0 -0.259,0 c -0.611,0 -0.991,0.396 -0.991,0.989 l 0,0.317 0,1.323 c -0.001,0 -0.019,0.274 -0.058,0.407"
         inkscape:connector-curvature="0"
         style="fill:#ffffff" /><path
         id="path4506"
         d="m 105.068,44.01 c 0.205,0.074 0.428,0.195 0.566,0.398 l 1.486,0 c 0.057,0 0.133,-0.048 0.133,-0.103 l 0,-0.607 c 0,-0.056 -0.076,-0.1 -0.133,-0.1 l -1.541,0 c -0.1,0.203 -0.343,0.35 -0.511,0.412"
         inkscape:connector-curvature="0"
         style="fill:#ffffff" /><path
         id="path4508"
         d="m 103.986,43.599 c -0.055,0 -0.07,0.044 -0.07,0.099 l 0,0.607 c 0,0.055 0.017,0.104 0.07,0.104 l 0.291,0 1.357,0 c -0.092,-0.204 -0.316,-0.342 -0.479,-0.405 0.169,-0.062 0.322,-0.203 0.425,-0.405 l -1.275,0 -0.319,0 z"
         inkscape:connector-curvature="0"
         style="fill:#ffffff" /></g></g></svg>