<?xml version="1.0" encoding="UTF-8" standalone="no"?>
<?xml-stylesheet type="text/css" href="svg-stylesheet.css" ?><!-- Generator: Adobe Illustrator 15.0.0, SVG Export Plug-In . SVG Version: 6.00 Build 0)  -->

<svg
   xmlns:dc="http://purl.org/dc/elements/1.1/"
   xmlns:cc="http://creativecommons.org/ns#"
   xmlns:rdf="http://www.w3.org/1999/02/22-rdf-syntax-ns#"
   xmlns:svg="http://www.w3.org/2000/svg"
   xmlns="http://www.w3.org/2000/svg"
   xmlns:sodipodi="http://sodipodi.sourceforge.net/DTD/sodipodi-0.dtd"
   xmlns:inkscape="http://www.inkscape.org/namespaces/inkscape"
   version="1.1"
   id="Layer_1"
   x="0px"
   y="0px"
   width="444"
   height="512"
   viewBox="0 0 444 512"
   enable-background="new 0 0 512 512"
   xml:space="preserve"
   inkscape:version="0.91 r"
   sodipodi:docname="flickr_hex.svg"><metadata
     id="metadata14"><rdf:RDF><cc:Work
         rdf:about=""><dc:format>image/svg+xml</dc:format><dc:type
           rdf:resource="http://purl.org/dc/dcmitype/StillImage" /><dc:title></dc:title></cc:Work></rdf:RDF></metadata><defs
     id="defs12" /><sodipodi:namedview
     pagecolor="#ffffff"
     bordercolor="#666666"
     borderopacity="1"
     objecttolerance="10"
     gridtolerance="10"
     guidetolerance="10"
     inkscape:pageopacity="0"
     inkscape:pageshadow="2"
     inkscape:window-width="1366"
     inkscape:window-height="716"
     id="namedview10"
     showgrid="false"
     inkscape:snap-bbox="true"
     inkscape:bbox-paths="true"
     inkscape:bbox-nodes="true"
     inkscape:snap-bbox-edge-midpoints="true"
     inkscape:zoom="1.078125"
     inkscape:cx="284.4188"
     inkscape:cy="256"
     inkscape:window-x="0"
     inkscape:window-y="25"
     inkscape:window-maximized="1"
     inkscape:current-layer="Layer_1"><sodipodi:guide
       position="0,0"
       orientation="0,512"
       id="guide4155" /><sodipodi:guide
       position="512,0"
       orientation="-512,0"
       id="guide4157" /><sodipodi:guide
       position="512,512"
       orientation="0,-512"
       id="guide4159" /><sodipodi:guide
       position="0,512"
       orientation="512,0"
       id="guide4161" /></sodipodi:namedview><style
     id="style3">
path.flickr {
    fill: white;
}
</style><g
     id="g4177"
     transform="translate(-33.999999,0)"><rect
       style="fill:#ff0084"
       id="canvas_background"
       height="178.64346"
       width="168.62608"
       y="159.72174"
       x="69.286957" /><rect
       style="fill:#0063dc"
       id="rect6"
       height="186.06377"
       width="190.88696"
       y="156.93913"
       x="256" /><path
       inkscape:connector-curvature="0"
       style="fill:#ffffff"
       id="path8"
       d="M 256,-1.2e-6 34.018238,128 l 0,256 L 256,512 477.98176,384 l 0,-256 L 256,-1.2e-6 Z M 158.34764,180.52424 c 41.6851,0 75.49146,33.77527 75.49146,75.48949 0,41.70016 -33.80636,75.46007 -75.49146,75.46007 -41.68509,0 -75.460063,-33.75689 -75.460063,-75.46007 0,-41.71422 33.774973,-75.48949 75.460063,-75.48949 z m 195.27333,0 c 41.68509,0 75.49145,33.77527 75.49145,75.48949 0,41.70016 -33.80636,75.46007 -75.49145,75.46007 -41.6851,0 -75.49146,-33.75689 -75.49146,-75.46007 0,-41.71422 33.80636,-75.48949 75.49146,-75.48949 z" /></g></svg>